<svg viewBox="0 0 100 100" xmlns="http://www.w3.org/2000/svg">
  <!-- Sun -->
  <circle cx="65" cy="40" r="18" fill="#FFC107" />
  <!-- Sun rays -->
  <line x1="65" y1="15" x2="65" y2="10" stroke="#FFC107" stroke-width="4" stroke-linecap="round" />
  <line x1="65" y1="70" x2="65" y2="65" stroke="#FFC107" stroke-width="4" stroke-linecap="round" />
  <line x1="42" y1="40" x2="37" y2="40" stroke="#FFC107" stroke-width="4" stroke-linecap="round" />
  <line x1="90" y1="40" x2="85" y2="40" stroke="#FFC107" stroke-width="4" stroke-linecap="round" />
  <line x1="49" y1="24" x2="45" y2="20" stroke="#FFC107" stroke-width="4" stroke-linecap="round" />
  <line x1="85" y1="60" x2="81" y2="56" stroke="#FFC107" stroke-width="4" stroke-linecap="round" />
  <line x1="49" y1="56" x2="45" y2="60" stroke="#FFC107" stroke-width="4" stroke-linecap="round" />
  <line x1="85" y1="20" x2="81" y2="24" stroke="#FFC107" stroke-width="4" stroke-linecap="round" />
  
  <!-- Cloud -->
  <path d="M25,60 Q25,50 35,50 Q35,40 45,40 Q55,35 60,45 Q70,40 75,50 Q85,50 85,60 Q85,70 75,70 L35,70 Q25,70 25,60Z" fill="#FFAB40" />
  <path d="M20,65 Q20,55 30,55 Q30,45 40,45 Q50,40 55,50 Q65,45 70,55 Q80,55 80,65 Q80,75 70,75 L30,75 Q20,75 20,65Z" fill="#FFC107" />
</svg>